<?xml version="1.0" encoding="UTF-8" standalone="no"?><!DOCTYPE svg PUBLIC "-//W3C//DTD SVG 1.1//EN" "http://www.w3.org/Graphics/SVG/1.1/DTD/svg11.dtd"><svg width="100%" height="100%" viewBox="0 0 200 200" version="1.1" xmlns="http://www.w3.org/2000/svg" xmlns:xlink="http://www.w3.org/1999/xlink" xml:space="preserve" xmlns:serif="http://www.serif.com/" style="fill-rule:evenodd;clip-rule:evenodd;stroke-linecap:round;stroke-linejoin:round;stroke-miterlimit:1.5;"><g id="Pata_Abajo"><path d="M145.577,116.769l19.559,0l12.092,-6.667" style="fill:none;stroke:#fff;stroke-width:2.5px;"/><path d="M165.136,116.769l12.092,6.381" style="fill:none;stroke:#fff;stroke-width:2.5px;"/><path d="M165.136,116.769l12.092,0" style="fill:none;stroke:#fff;stroke-width:2.5px;"/></g><g id="Pata_Arriba"><path d="M145.577,67.769l19.559,0l12.092,-6.667" style="fill:none;stroke:#fff;stroke-width:2.5px;"/><path d="M165.136,67.769l12.092,6.381" style="fill:none;stroke:#fff;stroke-width:2.5px;"/><path d="M165.136,67.769l12.092,0" style="fill:none;stroke:#fff;stroke-width:2.5px;"/></g><g id="Cuerpo"><rect x="62.367" y="53.22" width="83.21" height="91.922" style="fill:#29cb7e;"/></g><g id="Alas"><path d="M86.982,51.988c0,0 0.394,-9.848 7.505,-19.611c8.154,-11.193 16.827,-13.614 16.827,-13.614l-2.449,10.745l10.664,-6.063l-4.644,11.023l4.166,-0.837l-8.845,18.357l-23.224,0Z" style="fill:none;stroke:#fff;stroke-width:2.5px;"/><path d="M86.982,146.368c0,0 1.475,5.332 6.232,12.542c8.031,12.175 15.741,18.161 15.741,18.161l-2.121,-19.924l7.617,7.378l-1.763,-9.171c0,0 5.318,2.001 6.721,-0.358c1.404,-2.359 -4.958,-8.628 -4.958,-8.628l-27.469,0Z" style="fill:none;stroke:#fff;stroke-width:2.5px;"/></g><g id="Grupo_Cabeza"><g id="Cabeza"><circle cx="53.259" cy="96.883" r="16.294" style="fill:none;stroke:#fff;stroke-width:2.5px;"/></g><g id="Pico"><path d="M37.841,91.178c0,0 -5.119,0.094 -9.541,-2.535c-4.421,-2.629 -8.442,-5.852 -12.017,-6.334c-1.616,-0.218 -4.771,1.924 -4.771,1.924c0,0 0.702,2.976 6.644,6.945c7.683,5.132 18.875,6.94 18.875,6.94c0,0 -0.18,-0.654 0,-2.718c0.178,-2.04 0.81,-4.222 0.81,-4.222Z" style="fill:none;stroke:#fff;stroke-width:2.5px;"/><path d="M38.441,103.839c0,0 -0.551,-1.246 -0.814,-2.162c-0.225,-0.782 -0.361,-1.68 -0.361,-1.68c0,0 -7.326,2.814 -14.183,7.105c-7.806,4.884 -9.298,8.943 -9.298,8.943c0,0 2.598,1.901 6.126,0.61c4.493,-1.643 7.966,-5.834 10.46,-8.054c3.273,-2.912 8.07,-4.762 8.07,-4.762Z" style="fill:none;stroke:#fff;stroke-width:2.5px;"/></g><g id="Ojo"><ellipse cx="46.826" cy="92.587" rx="2.881" ry="2.95" style="fill:none;stroke:#fff;stroke-width:2.5px;"/></g></g><g id="Layer1"><g transform="matrix(1,0,0,1,1,2)"><text x="70.598px" y="86.302px" style="font-family:'Athelas-Regular', 'Athelas';font-size:36px;fill:#f65058;">v<tspan x="86.654px 105.266px " y="86.302px 86.302px ">ol</tspan>a</text><text x="70.598px" y="122.302px" style="font-family:'Athelas-Regular', 'Athelas';font-size:36px;fill:#f65058;">n<tspan x="90.578px 101.27px 118.01px " y="122.302px 122.302px 122.302px ">tes</tspan></text></g></g></svg>